HIERARCHY
ROOT SpineBase
{
  OFFSET 0.000000 0.000000 0.000000
  CHANNELS 6 Xposition Yposition Zposition Zrotation Xrotation Yrotation
  JOINT SpineMid
  {
    OFFSET 0.000000 29.740291 0.000000
    CHANNELS 3 Zrotation Xrotation Yrotation
    JOINT SpineShoulder
    {
      OFFSET 0.037687 22.023591 -0.814590
      CHANNELS 3 Zrotation Xrotation Yrotation
      JOINT Neck
      {
        OFFSET 0.000576 7.283314 -0.612201
        CHANNELS 3 Zrotation Xrotation Yrotation
        JOINT Head
        {
          OFFSET -2.893622 13.024668 1.112001
          CHANNELS 3 Zrotation Xrotation Yrotation
          End Site
          {
            OFFSET 0 0 0
          }
        }
      }
      JOINT ShoulderLeft
      {
        OFFSET -14.068642 -3.598483 8.135292
        CHANNELS 3 Zrotation Xrotation Yrotation
        JOINT ElbowLeft
        {
          OFFSET 0.266247 -29.007968 7.045674
          CHANNELS 3 Zrotation Xrotation Yrotation
          JOINT WristLeft
          {
            OFFSET -1.373463 -21.704361 -6.949522
            CHANNELS 3 Zrotation Xrotation Yrotation
            JOINT HandLeft
            {
              OFFSET 0.056162 -4.574757 2.084467
              CHANNELS 3 Zrotation Xrotation Yrotation
              JOINT HandTipLeft
              {
                OFFSET 1.047402 -7.356687 -5.235360
                CHANNELS 3 Zrotation Xrotation Yrotation
                End Site
                {
                  OFFSET 0 0 0
                }
              }
              JOINT ThumbLeft
              {
                OFFSET 0.227211 -2.185311 -0.511519
                CHANNELS 3 Zrotation Xrotation Yrotation
                End Site
                {
                  OFFSET 0 0 0
                }
              }
            }
          }
        }
      }
      JOINT ShoulderRight
      {
        OFFSET 9.532491 -4.638314 -11.330952
        CHANNELS 3 Zrotation Xrotation Yrotation
        JOINT ElbowRight
        {
          OFFSET 5.939164 -21.619864 -2.877800
          CHANNELS 3 Zrotation Xrotation Yrotation
          JOINT WristRight
          {
            OFFSET 0.760496 -21.795389 -5.667179
            CHANNELS 3 Zrotation Xrotation Yrotation
            JOINT HandRight
            {
              OFFSET -0.957772 -4.875074 -0.616524
              CHANNELS 3 Zrotation Xrotation Yrotation
              JOINT HandTipRight
              {
                OFFSET 0.325274 -6.966307 -0.930433
                CHANNELS 3 Zrotation Xrotation Yrotation
                End Site
                {
                  OFFSET 0 0 0
                }
              }
              JOINT ThumbRight
              {
                OFFSET -2.032805 -1.808680 -1.685086
                CHANNELS 3 Zrotation Xrotation Yrotation
                End Site
                {
                  OFFSET 0 0 0
                }
              }
            }
          }
        }
      }
    }
  }
  JOINT HipLeft
  {
    OFFSET -4.721477 -0.093512 0.178427
    CHANNELS 3 Zrotation Xrotation Yrotation
    JOINT KneeLeft
    {
      OFFSET 3.962674 -26.048992 9.494673
      CHANNELS 3 Zrotation Xrotation Yrotation
      JOINT AnkleLeft
      {
        OFFSET 8.017564 -31.015549 8.754647
        CHANNELS 3 Zrotation Xrotation Yrotation
        JOINT FootLeft
        {
          OFFSET -2.642373 -6.934784 -3.762130
          CHANNELS 3 Zrotation Xrotation Yrotation
          End Site
          {
            OFFSET 0 0 0
          }
        }
      }
    }
  }
  JOINT HipRight
  {
    OFFSET 4.614234 1.268823 -7.083757
    CHANNELS 3 Zrotation Xrotation Yrotation
    JOINT KneeRight
    {
      OFFSET 10.539231 -23.436219 -10.313950
      CHANNELS 3 Zrotation Xrotation Yrotation
      JOINT AnkleRight
      {
        OFFSET 6.008977 -36.175297 22.133123
        CHANNELS 3 Zrotation Xrotation Yrotation
        JOINT FootRight
        {
          OFFSET -6.008736 -4.056658 -10.471180
          CHANNELS 3 Zrotation Xrotation Yrotation
          End Site
          {
            OFFSET 0 0 0
          }
        }
      }
    }
  }
}
MOTION
Frames: 14
Frame Time: 0.033333
10.235264 66.557522 334.592536 -0.000000 0.000000 37.879099 0.000000 0.000000 -37.879099 -0.000000 0.000000 0.000000 -0.000000 0.000000 0.000000 0.000000 0.000000 0.000000 -0.000000 0.000000 0.000000 -0.000000 0.000000 0.000000 -0.000000 0.000000 0.000000 -0.000000 0.000000 0.000000 0.000000 0.000000 0.000000 0.000000 0.000000 0.000000 -0.000000 0.000000 0.000000 -0.000000 0.000000 0.000000 -0.000000 0.000000 0.000000 -0.000000 0.000000 0.000000 0.000000 0.000000 0.000000 0.000000 0.000000 0.000000 0.000000 0.000000 -37.879099 -0.000000 0.000000 0.000000 -0.000000 0.000000 0.000000 0.000000 0.000000 0.000000 0.000000 0.000000 -37.879099 -0.000000 0.000000 0.000000 -0.000000 0.000000 0.000000 0.000000 0.000000 0.000000
10.280682 66.535757 334.556661 0.037605 -0.031841 38.151698 -0.009903 0.048269 -38.151683 -0.000000 0.000000 0.000000 -0.000000 0.000000 0.000000 0.000000 0.000000 0.000000 -0.000000 0.000000 0.000000 -0.000000 0.000000 0.000000 0.179251 2.845310 0.113442 -0.185110 -2.844935 -0.122491 0.000000 0.000000 0.000000 0.000000 0.000000 0.000000 -0.000000 0.000000 0.000000 -0.000000 0.000000 0.000000 -3.024350 0.947428 0.220063 2.714157 -3.761841 -0.273926 0.000000 0.000000 0.000000 0.000000 0.000000 0.000000 -0.009903 0.048269 -38.151683 -0.000000 0.000000 0.000000 -5.976542 10.264669 -0.130220 0.000000 0.000000 0.000000 -0.009903 0.048269 -38.151683 -0.000000 0.000000 0.000000 -0.000000 0.000000 0.000000 0.000000 0.000000 0.000000
10.313170 66.516536 334.528347 0.059049 -0.058119 38.376933 -0.010209 0.082222 -38.376896 -0.000000 0.000000 0.000000 -0.000000 0.000000 0.000000 0.000000 0.000000 0.000000 -0.000000 0.000000 0.000000 -0.000000 0.000000 0.000000 0.222466 5.174313 0.158131 0.707719 -5.069954 -0.748188 0.000000 0.000000 0.000000 0.000000 0.000000 0.000000 -0.839914 0.117749 0.145285 1.554061 -1.107017 -0.357116 -6.536214 2.792333 0.787177 5.340671 -7.000891 -0.492163 0.000000 0.000000 0.000000 0.000000 0.000000 0.000000 -0.010209 0.082222 -38.376896 -0.000000 0.000000 0.000000 -9.953294 17.119313 0.307877 0.000000 0.000000 0.000000 -0.010209 0.082222 -38.376896 -0.000000 0.000000 0.000000 -0.000000 0.000000 0.000000 0.000000 0.000000 0.000000
10.332729 66.499858 334.507592 0.064346 -0.078840 38.553788 -0.001183 0.101759 -38.553743 -0.000000 0.000000 0.000000 -0.000000 0.000000 0.000000 0.000000 0.000000 0.000000 -0.000000 0.000000 0.000000 -0.000000 0.000000 0.000000 0.142527 7.045773 0.146892 1.087477 -6.763408 -0.854525 0.000000 0.000000 0.000000 0.000000 0.000000 0.000000 -1.195616 0.166597 0.207211 2.059694 -1.472181 -0.463317 -8.952031 3.833227 1.143472 7.632661 -9.479641 -0.628308 0.000000 0.000000 0.000000 0.000000 0.000000 0.000000 -0.670380 0.730821 -38.871607 0.915779 -0.069748 0.323284 -12.332701 21.348191 0.717329 0.000000 0.000000 0.000000 -0.001183 0.101759 -38.553743 -0.000000 0.000000 0.000000 -0.000000 0.000000 0.000000 0.000000 0.000000 0.000000
10.339358 66.485724 334.494396 0.053508 -0.094011 38.681470 0.016985 0.106830 -38.681442 -0.000000 0.000000 0.000000 -0.000000 0.000000 0.000000 0.000000 0.000000 0.000000 -0.000000 0.000000 0.000000 -0.000000 0.000000 0.000000 -0.053166 8.507955 0.087330 1.458544 -7.958022 -0.793141 0.000000 0.000000 0.000000 0.000000 0.000000 0.000000 -1.514542 0.209802 0.262909 2.392098 -1.711513 -0.525514 -10.431042 4.552656 1.370745 9.343029 -11.013675 -0.676443 0.000000 0.000000 0.000000 0.000000 0.000000 0.000000 -0.751690 0.986677 -39.062685 1.151284 -0.198687 0.390575 -13.381221 23.615739 0.841660 0.000000 0.000000 0.000000 0.890161 -0.136975 -38.887467 -0.832730 -0.358394 0.203651 -0.000000 0.000000 0.000000 0.000000 0.000000 0.000000
10.333057 66.474135 334.488761 0.026546 -0.103634 38.759411 0.044180 0.097431 -38.759425 -0.000000 0.000000 0.000000 -0.000000 0.000000 0.000000 0.000000 0.000000 0.000000 -0.000000 0.000000 0.000000 -0.000000 0.000000 0.000000 -0.361711 9.598201 -0.016987 1.808533 -8.693004 -0.571417 0.000000 0.000000 0.000000 0.000000 0.000000 0.000000 -1.800349 0.247982 0.312942 2.555768 -1.825249 -0.545530 -10.788718 4.908585 1.407110 10.285660 -11.504128 -0.651794 0.000000 0.000000 0.000000 0.000000 0.000000 0.000000 -0.757864 1.246375 -39.181536 1.347590 -0.383753 0.436030 -13.240222 24.292392 0.585687 0.000000 0.000000 0.000000 1.144047 0.052747 -38.856062 -0.884571 -0.655185 0.090138 -0.000000 0.000000 0.000000 0.000000 0.000000 0.000000
10.300642 66.452841 334.513655 -0.032979 -0.114041 38.783381 0.097140 0.068240 -38.783471 -0.000000 0.000000 0.000000 -0.000000 0.000000 0.000000 0.000000 0.000000 0.000000 -0.000000 0.000000 0.000000 -0.000000 0.000000 0.000000 -0.922494 10.346559 -0.218487 2.255265 -9.357629 -0.148624 0.000000 0.000000 0.000000 0.000000 0.000000 0.000000 -2.043727 0.132457 0.312299 2.634708 -1.570886 -0.504666 -10.610156 5.678797 1.233906 10.632594 -11.836798 -0.362757 0.000000 0.000000 0.000000 0.000000 0.000000 0.000000 0.020651 1.531962 -38.972947 1.013670 -2.125567 -0.057881 -10.847960 22.040677 0.174817 0.000000 0.000000 0.000000 1.557940 0.140732 -38.830026 -1.092652 -0.972322 0.034619 -0.000000 0.000000 0.000000 0.000000 0.000000 0.000000
10.256224 66.426875 334.560489 -0.103519 -0.127155 38.878478 0.160399 0.034011 -38.878641 -0.000000 0.000000 0.000000 -0.017434 -0.861987 -0.190278 0.000000 0.000000 0.000000 -0.000000 0.000000 0.000000 -0.000000 0.000000 0.000000 -1.548580 11.021515 -0.439918 2.084609 -9.852081 0.684069 0.000000 0.000000 0.000000 0.000000 0.000000 0.000000 -2.143675 -0.087733 0.261001 2.236086 -0.881098 -0.322107 -8.501304 3.768733 0.901800 9.491640 -8.531301 -0.588564 0.000000 0.000000 0.000000 0.000000 0.000000 0.000000 -0.523464 2.216106 -39.368607 2.544389 -2.234024 0.464155 -5.601249 13.517958 -1.288385 0.000000 0.000000 0.000000 1.849368 0.461176 -38.721793 -1.050817 -1.389611 -0.176891 -0.000000 0.000000 0.000000 0.000000 0.000000 0.000000
10.208415 66.427939 334.594257 -0.181902 -0.164868 38.717707 0.245049 0.014859 -38.718000 -0.000000 0.000000 0.000000 0.054411 -0.993247 -0.224986 0.000000 0.000000 0.000000 -0.000000 0.000000 0.000000 -0.000000 0.000000 0.000000 -1.895243 11.959437 -0.543806 2.257312 -10.265589 1.069140 0.000000 0.000000 0.000000 0.000000 0.000000 0.000000 -2.541557 0.238381 0.411525 2.138369 -1.392112 -0.343593 -5.087902 3.199333 0.425313 7.801522 -7.416100 -0.554824 0.000000 0.000000 0.000000 0.000000 0.000000 0.000000 0.020340 2.520430 -39.075086 2.429762 -2.857600 0.332050 -1.163042 6.150970 -1.514938 0.000000 0.000000 0.000000 2.062219 1.057186 -38.200613 -0.935730 -2.728265 -0.771849 0.141028 0.787625 0.217016 0.000000 0.000000 0.000000
10.186074 66.453701 334.570067 -0.229161 -0.131490 38.581063 0.261141 -0.040121 -38.581235 -0.000000 0.000000 0.000000 0.088236 -1.061749 -0.242756 0.000000 0.000000 0.000000 -0.000000 0.000000 0.000000 -0.000000 0.000000 0.000000 -2.153146 11.950713 -0.639169 1.995989 -9.981733 1.526085 0.000000 0.000000 0.000000 0.000000 0.000000 0.000000 -3.106979 0.436555 0.549243 2.233939 -1.109356 -0.334789 -0.755496 0.373783 0.066912 4.486552 -3.617380 -0.747472 0.000000 0.000000 0.000000 0.000000 0.000000 0.000000 -0.626974 2.705880 -39.200691 3.478701 -2.400660 0.784847 1.597620 7.692099 -4.202914 0.000000 0.000000 0.000000 1.938973 1.692687 -37.636912 -0.220920 -3.780051 -1.154690 -0.078099 1.382207 0.184144 0.000000 0.000000 0.000000
10.153362 66.490805 334.503035 -0.289444 0.009246 38.324955 0.221338 -0.186743 -38.324571 -0.000000 0.000000 0.000000 0.092952 -1.237116 -0.281995 0.000000 0.000000 0.000000 -0.000000 0.000000 0.000000 0.320385 1.197472 -0.181138 -3.370836 9.918758 -0.881318 3.056951 -7.236521 2.185008 0.000000 0.000000 0.000000 0.000000 0.000000 0.000000 -3.100176 0.512171 0.571223 1.900818 -0.969218 -0.263935 0.299508 0.265585 -0.147355 4.410212 -0.576032 -0.639397 0.000000 0.000000 0.000000 0.000000 0.000000 0.000000 -0.493637 2.559227 -38.879373 3.460431 -2.537991 0.753285 -0.076753 6.548988 -2.857906 0.000000 0.000000 0.000000 1.244600 2.175612 -36.941631 0.996567 -4.687317 -1.449920 -0.449682 2.173486 0.095647 0.000000 0.000000 0.000000
10.084851 66.522992 334.155758 -0.413808 0.494045 38.089824 0.020921 -0.644109 -38.087922 -0.000000 0.000000 0.000000 0.121408 -1.270180 -0.291427 0.000000 0.000000 0.000000 -0.000000 0.000000 0.000000 0.235245 0.934185 -0.136020 -3.453729 9.830704 -0.991407 3.476389 -5.888021 2.258360 0.000000 0.000000 0.000000 0.000000 0.000000 0.000000 -2.605310 0.620145 0.534262 0.224629 -0.334993 0.102520 2.374278 -0.313305 -0.621868 3.415248 0.599724 -0.445226 0.000000 0.000000 0.000000 0.000000 0.000000 0.000000 -3.028426 1.544089 -39.461476 5.650392 -0.165056 1.801551 -1.960214 9.755414 -3.722187 0.000000 0.000000 0.000000 0.992051 2.777327 -36.047781 1.872739 -6.503720 -2.028349 -0.755349 3.140896 0.081877 0.000000 0.000000 0.000000
9.989947 66.643381 334.276007 -0.596204 0.186989 38.103900 0.353774 -0.515044 -38.101337 -0.000000 0.000000 0.000000 0.229487 -1.224801 -0.289393 0.000000 0.000000 0.000000 -0.277963 -1.801452 -0.088085 0.275329 1.801857 0.079386 -4.461263 16.321975 -1.275868 5.558142 -14.290288 2.602280 0.000000 0.000000 0.000000 0.000000 0.000000 0.000000 -1.762273 0.691687 0.436738 -2.021245 0.606361 0.609721 3.764906 -1.349926 -0.983889 3.183714 2.556879 -0.375387 0.000000 0.000000 0.000000 0.000000 0.000000 0.000000 -6.148781 2.902051 -40.818107 10.057720 1.966213 3.514206 2.194651 6.327795 -6.266689 0.000000 0.000000 0.000000 1.224713 4.576386 -35.030485 3.192757 -9.253405 -2.905891 -1.211030 4.528265 0.061064 0.000000 0.000000 0.000000
10.078553 66.635562 334.388975 -0.467537 -0.049260 37.250741 0.401976 -0.243790 -37.250087 -0.000000 0.000000 0.000000 0.252306 -1.109555 -0.265699 0.000000 0.000000 0.000000 -0.221422 -1.254126 -0.067537 0.219996 1.254377 0.062705 -0.176073 16.297548 0.156644 -0.005055 -19.528001 -0.531986 0.000000 0.000000 0.000000 0.000000 0.000000 0.000000 -0.559439 0.646956 0.255502 -5.585598 2.068315 1.515255 2.844203 0.868337 -1.884574 5.425877 1.745571 0.400716 0.000000 0.000000 0.000000 0.000000 0.000000 0.000000 -10.252510 4.841528 -41.442772 15.585757 4.136107 5.367106 14.180949 2.973141 -13.809281 0.000000 0.000000 0.000000 3.312539 9.024772 -32.021513 3.711734 -14.982935 -4.840332 -1.714433 5.455264 -0.062467 0.000000 0.000000 0.000000
